<svg width="512" height="512" xmlns="http://www.w3.org/2000/svg">

 <g>
  <title>background</title>
  <rect fill="none" id="canvas_background" height="402" width="582" y="-1" x="-1"/>
 </g>
 <g>
  <title>Layer 1</title>
  <path stroke="null" fill="#ffffff" id="svg_2" d="m486.630014,241.430355l-61.236443,-133.012343l-66.378435,29.139302l4.440811,9.713101c-14.140476,4.456599 -29.683314,5.485045 -45.459879,2.971066c-10.283983,-1.599805 -20.684829,-1.599805 -30.851949,0c-8.063577,1.256989 -16.127155,3.656697 -23.723279,6.970578c-3.505903,1.485533 -6.894943,3.313881 -10.283983,5.370773l-29.566451,14.1697c-4.557674,-0.799902 -9.115348,-1.371261 -13.673023,-1.599805c-16.127155,-0.685631 -31.319402,-4.799414 -44.408108,-11.998536l6.310626,-8.456111l-59.249765,-41.594925l-87.180127,118.385556l59.016038,41.594925l6.310626,-8.456111c11.21889,9.827372 19.983648,22.625811 25.709957,37.366869c0.467454,1.256989 0.934908,2.399707 1.519225,3.656697l-7.47926,10.055916c-7.47926,10.170188 -5.141991,24.454159 5.258855,31.767553c3.38904,2.399707 7.12867,3.656697 10.985163,4.113784c0,1.142718 0.116863,2.285435 0.233727,3.428153c1.051771,5.942132 4.323947,11.198634 9.349075,14.85533c3.973357,2.856794 8.764758,4.342327 13.556159,4.342327c0.701181,0 1.285498,0 1.986679,-0.114272c1.285498,5.256502 4.440811,9.827372 8.998485,13.026982c4.09022,2.856794 8.881622,4.342327 13.556159,4.342327c2.454132,0 4.908265,-0.342815 7.245533,-1.142718c1.636088,3.542425 4.207084,6.627763 7.47926,8.913198c3.973357,2.856794 8.764758,4.342327 13.556159,4.342327c1.285498,0 2.570996,-0.114272 3.73963,-0.342815c6.193762,-1.028446 11.569481,-4.228056 15.192247,-9.141742l4.674538,-6.399219l22.320917,12.569895c3.973357,2.285435 8.414168,3.313881 12.621252,3.313881c6.894943,0 13.556159,-2.742523 18.230697,-7.999024c2.570996,-2.971066 4.440811,-6.399219 5.375718,-10.170188c4.557674,1.485533 9.349075,1.828348 14.25734,1.028446c7.946714,-1.256989 14.841657,-5.485045 19.516195,-11.884264c3.038449,-4.228056 5.025128,-9.141742 5.492582,-14.1697c0.233727,-2.285435 0.233727,-4.570871 -0.116863,-6.742035c8.180441,-0.457087 16.010291,-3.999512 21.38601,-10.398731c4.557674,-5.370773 6.894943,-11.884264 6.894943,-18.740571c1.752952,0.114272 3.38904,0 5.141991,-0.342815c6.427489,-1.028446 12.036934,-4.456599 15.776565,-9.598829c3.155313,-4.342327 5.141991,-9.370285 5.726309,-14.741059c0,-0.228544 0,-0.571359 0.116863,-0.799902c1.636088,-2.056892 3.155313,-4.228056 4.557674,-6.399219c8.531031,-13.255526 19.633058,-23.8828 32.371173,-31.310466l4.323947,9.256014l66.378435,-29.139302zm-21.619737,-7.999024l-36.461394,15.998048l-47.797148,-103.873041l36.461394,-15.998048l47.797148,103.873041zm-348.720509,-97.930909l32.488037,22.854354l-64.041166,86.846547l-4.09022,5.599317l-32.488037,-22.854354l68.131386,-92.445863zm7.47926,189.57687l10.167119,-13.826884l0.584317,-0.799902c0.233727,-0.342815 0.584317,-0.685631 0.818044,-0.914174c0,0 0,0 0,0c0.35059,-0.228544 0.584317,-0.571359 0.934908,-0.685631c0,0 0.116863,0 0.116863,-0.114272c0.35059,-0.228544 0.701181,-0.342815 1.051771,-0.571359c0,0 0.116863,0 0.116863,0c0.35059,-0.114272 0.818044,-0.228544 1.285498,-0.342815c0,0 0.116863,0 0.116863,0c0.233727,0 0.584317,-0.114272 0.818044,-0.114272c0.116863,0 0.233727,0 0.233727,0c0.233727,0 0.584317,0 0.818044,0.114272c0.116863,0 0.233727,0 0.35059,0c0.233727,0 0.467454,0.114272 0.701181,0.114272c0.116863,0 0.116863,0 0.233727,0.114272c0.233727,0.114272 0.584317,0.228544 0.818044,0.342815c0.116863,0 0.116863,0.114272 0.233727,0.114272c0.233727,0.114272 0.584317,0.342815 0.818044,0.457087c1.752952,1.256989 2.804723,3.19961 2.804723,5.256502c0,0.342815 0,0.571359 0,0.914174c0,0.342815 -0.116863,0.685631 -0.116863,0.914174c-0.233727,0.799902 -0.584317,1.599805 -1.051771,2.285435l-10.751437,14.626787c-2.220405,2.971066 -6.544353,3.656697 -9.582802,1.485533c-3.038449,-2.171164 -3.73963,-6.399219 -1.519225,-9.370285zm22.204054,31.767553c-1.519225,-1.028446 -2.454132,-2.628251 -2.804723,-4.342327c-0.35059,-1.828348 0.116863,-3.542425 1.168634,-5.027958l24.073869,-32.681727c1.051771,-1.485533 2.687859,-2.399707 4.440811,-2.742523c0.35059,0 0.701181,-0.114272 1.051771,-0.114272c0,0 0.116863,0 0.116863,0c0.35059,0 0.584317,0 0.934908,0.114272c0,0 0.116863,0 0.116863,0c0.233727,0 0.584317,0.114272 0.818044,0.228544c0,0 0.116863,0 0.116863,0c0.35059,0.114272 0.584317,0.228544 0.818044,0.342815c0.116863,0 0.116863,0.114272 0.233727,0.114272c0.233727,0.114272 0.584317,0.342815 0.818044,0.457087c1.519225,1.028446 2.454132,2.628251 2.804723,4.342327c0.116863,0.571359 0.116863,1.142718 0,1.828348c0,0.457087 -0.116863,1.028446 -0.35059,1.485533c0,0.114272 0,0.228544 -0.116863,0.228544c-0.116863,0.114272 -0.116863,0.342815 -0.233727,0.457087c0,0.114272 -0.116863,0.228544 -0.116863,0.342815c-0.116863,0.114272 -0.233727,0.342815 -0.233727,0.457087c-0.116863,0.114272 -0.116863,0.228544 -0.233727,0.342815c0,0 0,0 0,0l0,0c0,0 0,0 0,0l-24.073869,32.681727c-1.051771,1.485533 -2.687859,2.399707 -4.440811,2.742523c-1.636088,0.228544 -3.505903,-0.114272 -4.908265,-1.256989zm24.424459,17.255038c-1.519225,-1.028446 -2.454132,-2.628251 -2.804723,-4.342327c-0.35059,-1.828348 0.116863,-3.542425 1.168634,-5.027958l24.073869,-32.681727c0,0 0,0 0,0c0,0 0,0 0,0c0.233727,-0.342815 0.467454,-0.571359 0.818044,-0.914174c0.116863,-0.114272 0.116863,-0.114272 0.233727,-0.228544c0.233727,-0.228544 0.584317,-0.457087 0.934908,-0.685631c0.116863,0 0.116863,-0.114272 0.233727,-0.114272c0.233727,-0.114272 0.584317,-0.342815 0.934908,-0.457087c0.116863,0 0.116863,0 0.233727,-0.114272c0.35059,-0.114272 0.701181,-0.228544 1.168634,-0.342815c0.116863,0 0.233727,0 0.35059,-0.114272c0.116863,0 0.116863,0 0.233727,0c0.233727,0 0.35059,0 0.584317,0c0,0 0.116863,0 0.116863,0c0.35059,0 0.701181,0 0.934908,0.114272c0,0 0,0 0.116863,0c0.35059,0 0.584317,0.114272 0.934908,0.228544c0,0 0.116863,0 0.116863,0c0.35059,0.114272 0.584317,0.228544 0.934908,0.342815c0,0 0.116863,0 0.116863,0.114272c0.233727,0.114272 0.584317,0.342815 0.818044,0.457087c0.467454,0.342815 0.934908,0.799902 1.285498,1.256989c0.934908,1.142718 1.519225,2.513979 1.519225,3.999512c0,0.342815 0,0.571359 0,0.914174c-0.116863,0.571359 -0.233727,1.142718 -0.35059,1.714077c0,0 0,0 0,0c0,0.114272 -0.116863,0.114272 -0.116863,0.228544c-0.233727,0.457087 -0.467454,0.914174 -0.701181,1.371261l-24.073869,32.681727c-2.454132,3.085338 -6.77808,3.770968 -9.816529,1.599805zm33.422944,13.255526c-1.869815,0.342815 -3.622767,-0.114272 -5.141991,-1.142718c-1.519225,-1.028446 -2.454132,-2.628251 -2.804723,-4.342327c-0.35059,-1.828348 0.116863,-3.542425 1.168634,-5.027958l10.751437,-14.626787l0,0l0,0c0.116863,-0.228544 0.35059,-0.342815 0.467454,-0.457087c0.116863,-0.114272 0.35059,-0.342815 0.467454,-0.457087c0.116863,-0.114272 0.35059,-0.228544 0.584317,-0.457087c0.116863,-0.114272 0.35059,-0.228544 0.467454,-0.342815c0.233727,-0.114272 0.467454,-0.228544 0.701181,-0.342815c0.116863,-0.114272 0.35059,-0.114272 0.467454,-0.228544c0.467454,-0.114272 0.818044,-0.228544 1.285498,-0.342815c0.35059,0 0.701181,-0.114272 1.051771,-0.114272c0.116863,0 0.116863,0 0.233727,0c0.35059,0 0.584317,0 0.934908,0.114272c0.116863,0 0.116863,0 0.233727,0c0.233727,0 0.584317,0.114272 0.818044,0.228544c0,0 0.116863,0 0.116863,0c0.233727,0.114272 0.584317,0.228544 0.818044,0.342815c0.116863,0 0.116863,0.114272 0.233727,0.114272c0.233727,0.114272 0.584317,0.342815 0.818044,0.457087c1.986679,1.371261 3.038449,3.770968 2.804723,6.170676c-0.116863,1.142718 -0.584317,2.285435 -1.285498,3.313881l-10.751437,14.626787c-1.051771,1.256989 -2.570996,2.285435 -4.440811,2.513979zm158.817417,-89.131982c-0.233727,2.513979 -1.168634,4.913686 -2.687859,6.970578c-1.285498,1.714077 -3.038449,2.742523 -5.141991,3.085338c-2.103542,0.342815 -4.207084,-0.114272 -5.843172,-1.371261l-9.115348,-6.399219l0,0c0,0 0,0 0,0l-17.880107,-12.569895c-3.622767,-2.628251 -8.764758,-1.714077 -11.452617,1.828348c-2.687859,3.542425 -1.752952,8.570383 1.869815,11.198634l17.880107,12.569895c0,0 0,0 0,0c3.038449,2.171164 5.025128,5.485045 5.609445,9.141742c0.467454,3.656697 -0.584317,7.313393 -3.038449,10.284459c-4.440811,5.370773 -13.088705,6.170676 -19.165604,1.94262l-1.752952,-1.256989c0,0 -0.116863,-0.114272 -0.116863,-0.114272l0,0l-22.08719,-15.540961c-3.622767,-2.628251 -8.764758,-1.714077 -11.452617,1.828348c-2.687859,3.542425 -1.752952,8.570383 1.869815,11.198634l22.08719,15.540961c0,0 0,0 0,0l0,0c3.856494,2.742523 5.960036,7.427665 5.492582,12.22708c-0.233727,2.399707 -1.051771,4.570871 -2.454132,6.399219c-2.103542,2.856794 -5.258855,4.799414 -8.881622,5.370773c-3.622767,0.571359 -7.245533,-0.228544 -10.167119,-2.399707l-10.751437,-7.541937c0,0 -0.116863,0 -0.116863,-0.114272l-20.918556,-14.741059c-3.622767,-2.628251 -8.764758,-1.714077 -11.452617,1.828348c-2.687859,3.542425 -1.752952,8.570383 1.869815,11.198634l20.918556,14.741059l0,0l0,0c1.869815,1.256989 2.921586,3.19961 3.155313,5.370773c0.233727,2.171164 -0.467454,4.342327 -1.869815,6.056404c-2.454132,2.742523 -6.77808,3.313881 -10.400846,1.256989l-21.38601,-11.998536c0,0 0,0 0,0c0.116863,-0.342815 0.233727,-0.571359 0.35059,-0.914174c0,-0.114272 0.116863,-0.342815 0.116863,-0.457087c0.116863,-0.342815 0.233727,-0.685631 0.233727,-1.028446c0,-0.114272 0.116863,-0.228544 0.116863,-0.342815c0.116863,-0.342815 0.116863,-0.799902 0.233727,-1.142718c0,-0.114272 0,-0.228544 0.116863,-0.342815c0.116863,-0.457087 0.116863,-1.028446 0.233727,-1.485533c0.818044,-8.113296 -2.804723,-15.998048 -9.582802,-20.797462c-0.584317,-0.457087 -1.168634,-0.799902 -1.752952,-1.142718c-0.233727,-0.114272 -0.35059,-0.228544 -0.584317,-0.342815c-0.467454,-0.228544 -0.818044,-0.457087 -1.285498,-0.685631c-0.233727,-0.114272 -0.467454,-0.228544 -0.701181,-0.342815c-0.467454,-0.228544 -0.818044,-0.342815 -1.285498,-0.457087c-0.233727,-0.114272 -0.467454,-0.228544 -0.701181,-0.228544c-0.116863,0 -0.35059,-0.114272 -0.467454,-0.114272c0,0 0,-0.114272 0,-0.114272c0.116863,-0.228544 0.233727,-0.571359 0.35059,-0.799902c0.116863,-0.228544 0.116863,-0.342815 0.233727,-0.571359c0.116863,-0.342815 0.233727,-0.571359 0.233727,-0.914174c0,-0.228544 0.116863,-0.342815 0.116863,-0.571359c0.116863,-0.342815 0.116863,-0.685631 0.233727,-1.028446c0,-0.114272 0.116863,-0.342815 0.116863,-0.457087c0.116863,-0.457087 0.116863,-1.028446 0.233727,-1.485533l0,0c0.818044,-8.113296 -2.804723,-15.998048 -9.582802,-20.797462c-0.584317,-0.457087 -1.285498,-0.799902 -1.869815,-1.142718c-0.233727,-0.114272 -0.35059,-0.228544 -0.584317,-0.342815c-0.467454,-0.228544 -0.934908,-0.457087 -1.402361,-0.685631c-0.233727,-0.114272 -0.35059,-0.114272 -0.584317,-0.228544c-0.467454,-0.228544 -0.934908,-0.342815 -1.519225,-0.571359c-0.233727,-0.114272 -0.35059,-0.114272 -0.584317,-0.228544c-0.584317,-0.114272 -1.051771,-0.342815 -1.636088,-0.457087c-0.116863,0 -0.35059,-0.114272 -0.467454,-0.114272c-0.584317,-0.114272 -1.168634,-0.228544 -1.752952,-0.342815c-0.116863,0 -0.233727,0 -0.35059,0c-0.584317,-0.114272 -1.285498,-0.114272 -1.869815,-0.114272c-0.116863,0 -0.233727,0 -0.233727,0c-0.701181,0 -1.402361,0 -1.986679,0c0,0 -0.116863,0 -0.116863,0c-0.116863,0 -0.233727,0 -0.35059,0c0,-0.114272 -0.116863,-0.228544 -0.116863,-0.342815c-0.116863,-0.457087 -0.233727,-0.914174 -0.35059,-1.371261c0,-0.228544 -0.116863,-0.342815 -0.233727,-0.571359c-0.116863,-0.457087 -0.35059,-0.914174 -0.584317,-1.371261c0,-0.114272 -0.116863,-0.228544 -0.116863,-0.342815c-0.233727,-0.571359 -0.467454,-1.028446 -0.818044,-1.599805c-0.116863,-0.114272 -0.116863,-0.228544 -0.233727,-0.457087c-0.233727,-0.342815 -0.467454,-0.799902 -0.701181,-1.142718c-0.116863,-0.114272 -0.233727,-0.342815 -0.35059,-0.457087c-0.35059,-0.457087 -0.584317,-0.914174 -0.934908,-1.256989c0,0 -0.116863,-0.114272 -0.116863,-0.114272c-0.35059,-0.457087 -0.818044,-0.914174 -1.168634,-1.371261c-0.116863,-0.114272 -0.233727,-0.228544 -0.35059,-0.342815c-0.35059,-0.342815 -0.701181,-0.685631 -1.051771,-0.914174c-0.116863,-0.114272 -0.233727,-0.228544 -0.467454,-0.342815c-0.467454,-0.342815 -0.934908,-0.799902 -1.519225,-1.142718c-5.025128,-3.542425 -11.21889,-5.027958 -17.295789,-3.999512c-0.701181,0.114272 -1.402361,0.228544 -1.986679,0.457087c-0.116863,0 -0.35059,0.114272 -0.467454,0.114272c-0.584317,0.114272 -1.168634,0.342815 -1.752952,0.571359c-0.116863,0 -0.116863,0 -0.233727,0.114272c-0.584317,0.228544 -1.285498,0.457087 -1.869815,0.799902c-0.116863,0.114272 -0.35059,0.114272 -0.467454,0.228544c-0.467454,0.228544 -1.051771,0.571359 -1.519225,0.799902c-0.116863,0.114272 -0.233727,0.114272 -0.35059,0.114272c-0.584317,0.342815 -1.051771,0.685631 -1.636088,1.142718c-0.116863,0.114272 -0.233727,0.228544 -0.35059,0.342815c-0.233727,0.114272 -0.35059,0.342815 -0.584317,0.457087c0,0 0,0 0,0c-0.35059,-0.457087 -0.701181,-0.914174 -1.051771,-1.371261c-0.116863,-0.114272 -0.233727,-0.228544 -0.35059,-0.342815c-0.233727,-0.342815 -0.584317,-0.685631 -0.818044,-0.914174c-0.116863,-0.114272 -0.233727,-0.228544 -0.467454,-0.457087c-0.35059,-0.342815 -0.584317,-0.571359 -0.934908,-0.799902c-0.116863,-0.114272 -0.233727,-0.228544 -0.467454,-0.342815c-0.467454,-0.342815 -0.934908,-0.685631 -1.402361,-1.028446c-0.584317,-0.342815 -1.168634,-0.799902 -1.752952,-1.028446c-0.116863,-0.114272 -0.35059,-0.228544 -0.467454,-0.342815c-0.467454,-0.228544 -0.934908,-0.457087 -1.402361,-0.685631c-0.116863,-0.114272 -0.35059,-0.114272 -0.467454,-0.228544c-0.584317,-0.228544 -1.051771,-0.457087 -1.636088,-0.685631c-0.233727,-0.114272 -0.584317,-0.228544 -0.818044,-0.228544c-0.35059,-0.114272 -0.584317,-0.228544 -0.934908,-0.228544c-0.467454,-0.114272 -1.051771,-0.228544 -1.519225,-0.342815c-0.35059,-0.114272 -0.584317,-0.114272 -0.934908,-0.114272c-0.35059,0 -0.701181,-0.114272 -1.051771,-0.114272c-0.233727,0 -0.584317,0 -0.818044,-0.114272c-0.467454,0 -1.051771,0 -1.519225,0c-0.35059,0 -0.818044,0 -1.168634,0c-0.35059,0 -0.584317,0 -0.934908,0.114272c-0.467454,0 -0.934908,0.114272 -1.285498,0.114272c-0.116863,0 -0.35059,0 -0.467454,0c-0.116863,0 -0.233727,0 -0.35059,0.114272c-0.467454,0.114272 -0.934908,0.228544 -1.519225,0.342815c-0.233727,0.114272 -0.584317,0.114272 -0.818044,0.228544c-0.467454,0.114272 -0.934908,0.228544 -1.285498,0.457087c-0.35059,0.114272 -0.701181,0.228544 -1.051771,0.342815c-0.233727,0.114272 -0.467454,0.228544 -0.818044,0.342815c-6.894943,-16.683679 -17.295789,-30.96765 -30.384495,-42.052012l55.510135,-75.305098c10.985163,6.399219 23.255825,10.855818 36.34453,13.141254l-7.011806,67.534617c-1.051771,10.170188 6.544353,19.197658 16.828336,20.226104c9.699666,0.914174 19.048741,-1.828348 26.528001,-7.77048c7.47926,-5.942132 12.153798,-14.512515 13.205569,-23.8828l1.869815,-17.712125c9.465939,-0.342815 18.698151,-3.085338 26.878592,-7.77048l86.59581,65.363454c0.584317,0.457087 0.934908,0.799902 1.285498,1.028446l0.116863,0.114272c0.116863,0.114272 0.35059,0.342815 0.467454,0.457087l0.233727,0.228544c0.116863,0.114272 0.116863,0.228544 0.233727,0.228544l0.233727,0.228544c0.116863,0.114272 0.233727,0.228544 0.35059,0.342815l0.701181,1.028446c0.35059,0.457087 0.584317,0.914174 0.701181,1.256989l0.116863,0.228544c0.116863,0.228544 0.233727,0.342815 0.233727,0.571359c0.116863,0.228544 0.233727,0.457087 0.233727,0.685631c0.116863,0.228544 0.116863,0.457087 0.233727,0.685631l0.233727,0.685631c0.116863,0.571359 0.233727,1.142718 0.35059,1.599805l0,0.228544c0,0.228544 0,0.457087 0.116863,0.685631c0,0 0,0.114272 0,0.114272l0,0l0,0.571359l0,0c-0.233727,0.228544 -0.233727,0.799902 -0.35059,1.371261l0,0zm10.634573,-19.197658l-0.116863,-0.228544c0,0 0,0 0,0l0,0c-0.35059,-0.457087 -0.584317,-0.799902 -0.818044,-1.028446c0,0 0,-0.114272 -0.116863,-0.114272c-0.116863,-0.114272 -0.233727,-0.228544 -0.35059,-0.457087c-0.116863,-0.114272 -0.116863,-0.114272 -0.233727,-0.228544c-0.233727,-0.228544 -0.35059,-0.457087 -0.584317,-0.685631c-0.35059,-0.457087 -0.818044,-0.799902 -1.168634,-1.142718c0,0 0,0 0,0s0,0 0,0c-0.116863,-0.114272 -0.233727,-0.228544 -0.35059,-0.342815c-0.116863,-0.114272 -0.116863,-0.114272 -0.233727,-0.228544c-0.116863,-0.114272 -0.116863,-0.114272 -0.233727,-0.228544c-0.584317,-0.457087 -1.168634,-1.028446 -1.986679,-1.599805l-96.295476,-72.676847l-5.025128,3.656697c-8.297304,6.056404 -18.464424,8.913198 -28.86527,7.884752l-8.180441,-0.799902l-3.38904,33.024542c-0.584317,5.14223 -3.155313,9.827372 -7.245533,13.141254c-4.09022,3.313881 -9.349075,4.799414 -14.60793,4.228056c-1.402361,-0.114272 -2.337269,-1.371261 -2.220405,-2.628251l5.843172,-56.10744l41.837112,-20.111832l0,0l11.569481,-5.599317l0.701181,-0.342815c3.038449,-1.828348 5.960036,-3.313881 8.881622,-4.570871c6.310626,-2.742523 12.971842,-4.799414 19.633058,-5.82786c8.414168,-1.371261 17.062062,-1.371261 25.593094,0c18.931878,3.085338 37.746892,1.599805 54.808954,-3.999512l38.915526,84.675383c-13.789886,7.77048 -26.060547,18.740571 -35.760213,32.338911z" class="st0"/>
  <g stroke="null" id="svg_9">
   <path stroke="null" fill="#ffffff" id="svg_6" d="m434.019573,240.32c0.457808,0 0.801164,0.1 1.258972,0.1c2.746849,0 5.379246,-0.8 7.439383,-2.3c2.403493,-1.8 4.005822,-4.2 4.349178,-7c0.343356,-2.8 -0.57226,-5.5 -2.632397,-7.6c-2.060137,-2.1 -4.806986,-3.5 -8.011643,-3.8c-3.204657,-0.3 -6.294862,0.5 -8.698355,2.3c-2.403493,1.8 -4.005822,4.2 -4.349178,7c-0.57226,5.7 4.234726,10.8 10.64404,11.3zm-2.632397,-10.6c0.114452,-0.9 0.57226,-1.7 1.373425,-2.3c0.686712,-0.5 1.487877,-0.8 2.403493,-0.8c0.114452,0 0.228904,0 0.343356,0c1.030068,0.1 1.945685,0.5 2.632397,1.2c0.686712,0.7 0.915616,1.6 0.801164,2.5l0,0c-0.114452,0.9 -0.57226,1.7 -1.373425,2.3c-0.801164,0.6 -1.831233,0.8 -2.861301,0.7c-1.945685,-0.1 -3.433561,-1.8 -3.319109,-3.6z" class="st0"/>
   <path stroke="null" fill="#ffffff" id="svg_7" d="m89.747827,229.32l0,0c0.686712,-5.7 -4.120274,-10.8 -10.64404,-11.4c-3.204657,-0.3 -6.294862,0.5 -8.698355,2.3c-2.403493,1.8 -4.005822,4.2 -4.349178,7c-0.686712,5.7 4.120274,10.8 10.64404,11.4c0.457808,0 0.801164,0.1 1.258972,0.1c6.065958,-0.1 11.2163,-4.1 11.78856,-9.4zm-15.565478,-1.4c0.114452,-0.9 0.57226,-1.7 1.373425,-2.3c0.686712,-0.5 1.487877,-0.8 2.403493,-0.8c0.114452,0 0.228904,0 0.343356,0c2.060137,0.2 3.662465,1.8 3.433561,3.7c-0.228904,1.8 -2.060137,3.2 -4.234726,3c-2.060137,-0.1 -3.548013,-1.7 -3.319109,-3.6z" class="st0"/>
  </g>
 </g>
</svg>