<svg id="Vrstva_2" data-name="Vrstva 2" xmlns="http://www.w3.org/2000/svg" viewBox="0 0 494.81 490.46"><defs><style>.cls-1{fill:#fff;}.cls-1,.cls-2{stroke:#1d1d1b;stroke-miterlimit:10;}.cls-2{fill:none;}.cls-3{fill:#1d1d1b;}</style></defs><path class="cls-1" d="M544.43,421c-5.57,326.33-488.07,326.28-493.58,0C56.41,94.61,538.91,94.66,544.43,421Z" transform="translate(-50.11 -175.71)"/><path class="cls-2" d="M50.5,420.75C120.76,335.91,353.57,242.26,512,301" transform="translate(-50.11 -175.71)"/><line class="cls-2" x1="111.37" y1="452.4" x2="488.12" y2="303.45"/><path class="cls-2" d="M103.07,277.64C96.25,473,304.47,627.52,471.06,596" transform="translate(-50.11 -175.71)"/><path class="cls-3" d="M277.12,492.31c-8.41,4.21-25.24,8.41-46.79,8.41-49.94,0-87.53-31.54-87.53-89.63,0-55.46,37.59-93,92.53-93,22.08,0,36,4.73,42,7.89l-5.52,18.66c-8.67-4.21-21-7.36-35.75-7.36-41.53,0-69.12,26.55-69.12,73.07,0,43.37,25,71.23,68.07,71.23,13.93,0,28.13-2.89,37.33-7.36ZM220.61,310.68l-27.6-30h19.45l16.82,18.4h.53l16.56-18.4h18.92l-27.07,30Z" transform="translate(-50.11 -175.71)"/><path class="cls-3" d="M327.4,320.93v74.13h85.69V320.93h23.13V498.09H413.09V415H327.4v83.06H304.53V320.93Z" transform="translate(-50.11 -175.71)"/></svg>