<svg xmlns="http://www.w3.org/2000/svg" viewBox="0 0 48 48"><defs><style>.cls-1{stroke:#000;stroke-miterlimit:10;}</style></defs><g id="Vrstva_1" data-name="Vrstva 1"><g id="Layer_1" data-name="Layer 1"><path d="M44,1H6A5,5,0,0,0,1,6V44a5,5,0,0,0,5,5H27V30H21V24h6V20A11,11,0,0,1,38,9h3v6H38a5,5,0,0,0-5,5v4h7.87l-.75,6H33V49H44a5,5,0,0,0,5-5V6A5,5,0,0,0,44,1Zm3,43a3,3,0,0,1-3,3H35V32h6.88l1.25-10H35V20a3,3,0,0,1,3-3h5V7H38A13,13,0,0,0,25,20v2H19V32h6V47H6a3,3,0,0,1-3-3V6A3,3,0,0,1,6,3H44a3,3,0,0,1,3,3Z" transform="translate(-1 -1)"/></g></g><g id="Vrstva_2" data-name="Vrstva 2"><path class="cls-1" d="M3,3S.72,46.24,3.53,47c0,0,1,2,22.56.68V31.17L20,31l.17-7.92,6-.25S25,5.55,41.83,8.61v7.24S32.38,14.57,34.09,23l7.74-.17-1,8.25-6.55.26-.09,16.25,10.55.09S49.09,47.25,48,43L48.2,5.21,44.87,2.38H6Z" transform="translate(-1 -1)"/></g></svg>