<svg id="Vrstva_2" data-name="Vrstva 2" xmlns="http://www.w3.org/2000/svg" viewBox="0 0 35.09 35.09"><defs><style>.cls-1{fill:#1d1d1b;}</style></defs><path class="cls-1" d="M40.77,15.86H23.23a7.37,7.37,0,0,0-7.37,7.37V40.77a7.37,7.37,0,0,0,7.37,7.37H40.77a7.37,7.37,0,0,0,7.37-7.37V23.23A7.37,7.37,0,0,0,40.77,15.86ZM32,40.42A8.42,8.42,0,1,1,40.42,32,8.42,8.42,0,0,1,32,40.42Zm9.83-16.14a2.81,2.81,0,1,1,2.8-2.81A2.81,2.81,0,0,1,41.83,24.28Z" transform="translate(-14.46 -14.46)"/><path d="M40.77,14.46H23.23a8.76,8.76,0,0,0-8.77,8.77V40.77a8.76,8.76,0,0,0,8.77,8.77H40.77a8.76,8.76,0,0,0,8.77-8.77V23.23A8.76,8.76,0,0,0,40.77,14.46Zm7.37,26.31a7.37,7.37,0,0,1-7.37,7.37H23.23a7.37,7.37,0,0,1-7.37-7.37V23.23a7.37,7.37,0,0,1,7.37-7.37H40.77a7.37,7.37,0,0,1,7.37,7.37Z" transform="translate(-14.46 -14.46)"/><path d="M32,23.58A8.42,8.42,0,1,0,40.42,32,8.42,8.42,0,0,0,32,23.58ZM32,39a7,7,0,1,1,7-7A7,7,0,0,1,32,39Z" transform="translate(-14.46 -14.46)"/><path d="M41.83,18.67a2.81,2.81,0,1,0,2.8,2.8A2.8,2.8,0,0,0,41.83,18.67Zm0,4.21a1.41,1.41,0,1,1,1.4-1.41A1.41,1.41,0,0,1,41.83,22.88Z" transform="translate(-14.46 -14.46)"/></svg>