<svg width="60.003" height="60.003" xmlns="http://www.w3.org/2000/svg">

 <g>
  <title>background</title>
  <rect fill="none" id="canvas_background" height="402" width="582" y="-1" x="-1"/>
 </g>
 <g>
  <title>Layer 1</title>
  <path fill="#ffffff" id="svg_2" d="m50.052,20.458l0,-12.869c0,-1.839 -0.942,-3.502 -2.52,-4.446c-0.8,-0.479 -1.685,-0.726 -2.575,-0.741c-0.883,-0.024 -1.772,0.181 -2.587,0.618l-2.37,1.27l0,0.026l-17.213,9.222c-1.245,0.667 -2.138,1.797 -2.523,3.111l-13.028,0.796c-1.646,0.117 -2.948,1.406 -3.145,3.008l-0.88,0c-1.771,-0.001 -3.211,1.44 -3.211,3.21l0,5.578c0,1.771 1.44,3.211 3.211,3.211l0.885,0c0.217,1.775 1.66,3.203 3.492,3.334l0.464,0.028l0,17.288c0,2.481 2.019,4.5 4.5,4.5s4.5,-2.019 4.5,-4.5l0,-16.74l3.238,0.197c0.41,1.327 1.337,2.451 2.628,3.095l17.082,8.541l0,0.026l2.499,1.25c0.737,0.369 1.53,0.552 2.321,0.552c0.008,0 0.016,-0.002 0.024,-0.002c0.009,0 0.019,0.002 0.028,0.002c0.943,0 1.884,-0.261 2.722,-0.778c1.539,-0.951 2.458,-2.6 2.458,-4.409l0,-12.389c2.732,-0.028 4.948,-2.255 4.948,-4.995l0,-2c0,-2.739 -2.216,-4.966 -4.948,-4.994zm-35,32.645c0,1.379 -1.121,2.5 -2.5,2.5s-2.5,-1.121 -2.5,-2.5l0,-0.65l2,0c0.553,0 1,-0.447 1,-1s-0.447,-1 -1,-1l-2,0l0,-2l2,0c0.553,0 1,-0.447 1,-1s-0.447,-1 -1,-1l-2,0l0,-2l2,0c0.553,0 1,-0.447 1,-1s-0.447,-1 -1,-1l-2,0l0,-2l2,0c0.553,0 1,-0.447 1,-1s-0.447,-1 -1,-1l-2,0l0,-2.512l5,0.31l0,16.852zm28.394,-5.421l-1.446,-0.723l0,-41.444l1.365,-0.731c0.422,-0.226 0.876,-0.335 1.333,-0.36c0.064,-0.002 0.126,-0.021 0.19,-0.02c0.006,0 0.011,0.001 0.017,0.001c0.535,0.015 1.067,0.166 1.547,0.454c0.97,0.58 1.548,1.6 1.548,2.73l0,12.863l0,12l0,12.383c0,1.111 -0.564,2.123 -1.51,2.707c-0.467,0.289 -0.986,0.446 -1.511,0.473c-0.521,0.018 -1.046,-0.09 -1.533,-0.333zm-39.446,-17.23l-0.789,0c-0.668,0 -1.211,-0.543 -1.211,-1.21l0,-5.578c0,-0.668 0.543,-1.211 1.211,-1.211l0.789,0l0,7.999zm2.052,1.547l0,-11.134c0,-0.746 0.583,-1.372 1.316,-1.425l12.684,-0.774l0,15.874l-12.332,-0.749c-0.936,-0.067 -1.668,-0.854 -1.668,-1.792zm17.76,5.866c-1.086,-0.542 -1.76,-1.633 -1.76,-2.847l0,-16.91c0,-1.176 0.644,-2.251 1.681,-2.806l16.267,-8.716l0,39.372l-16.188,-8.093zm29.188,-10.413c0,1.637 -1.318,2.966 -2.948,2.995l0,-7.99c1.63,0.029 2.948,1.359 2.948,2.995l0,2z"/>
  <path fill="#ffffff" id="svg_3" d="m57.817,19.876c-0.317,-0.451 -0.942,-0.559 -1.394,-0.241c-0.451,0.318 -0.56,0.941 -0.241,1.394c1.156,1.641 1.768,3.474 1.817,5.45c0.064,2.493 -1.246,4.601 -1.813,5.391c-0.322,0.449 -0.219,1.074 0.229,1.396c0.177,0.127 0.381,0.188 0.582,0.188c0.312,0 0.618,-0.145 0.813,-0.417c0.685,-0.955 2.268,-3.51 2.188,-6.608c-0.059,-2.379 -0.793,-4.583 -2.181,-6.553z"/>
  <path fill="#ffffff" id="svg_4" d="m31.896,15.009c-0.245,-0.494 -0.842,-0.699 -1.34,-0.453l-4.451,2.201c-1.298,0.695 -2.105,2.042 -2.105,3.516l0,2.18c0,0.553 0.447,1 1,1s1,-0.447 1,-1l0,-2.18c0,-0.734 0.402,-1.406 1.021,-1.737l4.423,-2.187c0.494,-0.245 0.698,-0.845 0.452,-1.34z"/>
  <path fill="#ffffff" id="svg_5" d="m25,24.452c-0.553,0 -1,0.447 -1,1l0,2c0,0.553 0.447,1 1,1s1,-0.447 1,-1l0,-2c0,-0.552 -0.447,-1 -1,-1z"/>
 </g>
</svg>